<svg xmlns="http://www.w3.org/2000/svg" id="afb6f239-ddfa-4317-a8c2-6e12c8554240" data-name="Layer 1" width="165.953" height="115.814" viewBox="0 0 165.953 115.814"><circle cx="1.5" cy="1.5" r="1.5"></circle><circle cx="1.5" cy="14.0352" r="1.5"></circle><circle cx="1.5" cy="26.5684" r="1.5"></circle><circle cx="1.5" cy="39.1035" r="1.5"></circle><circle cx="1.5" cy="51.6406" r="1.5"></circle><circle cx="1.5" cy="64.1758" r="1.5"></circle><circle cx="1.5" cy="76.709" r="1.5"></circle><circle cx="1.5" cy="89.2441" r="1.5"></circle><circle cx="1.5" cy="101.779" r="1.5"></circle><circle cx="1.5" cy="114.314" r="1.5"></circle><circle cx="14.0312" cy="1.5" r="1.5"></circle><circle cx="14.0312" cy="14.0352" r="1.5"></circle><circle cx="14.0312" cy="26.5684" r="1.5"></circle><circle cx="14.0312" cy="39.1035" r="1.5"></circle><circle cx="14.0312" cy="51.6406" r="1.5"></circle><circle cx="14.0312" cy="64.1758" r="1.5"></circle><circle cx="14.0312" cy="76.709" r="1.5"></circle><circle cx="14.0312" cy="89.2441" r="1.5"></circle><circle cx="14.0312" cy="101.779" r="1.5"></circle><circle cx="14.0312" cy="114.314" r="1.5"></circle><circle cx="26.5664" cy="1.5" r="1.5"></circle><circle cx="26.5664" cy="14.0352" r="1.5"></circle><circle cx="26.5664" cy="26.5684" r="1.5"></circle><circle cx="26.5664" cy="39.1035" r="1.5"></circle><circle cx="26.5664" cy="51.6406" r="1.5"></circle><circle cx="26.5664" cy="64.1758" r="1.5"></circle><circle cx="26.5664" cy="76.709" r="1.5"></circle><circle cx="26.5664" cy="89.2441" r="1.5"></circle><circle cx="26.5664" cy="101.779" r="1.5"></circle><circle cx="26.5664" cy="114.314" r="1.5"></circle><circle cx="39.1016" cy="1.5" r="1.5"></circle><circle cx="39.1016" cy="14.0352" r="1.5"></circle><circle cx="39.1016" cy="26.5684" r="1.5"></circle><circle cx="39.1016" cy="39.1035" r="1.5"></circle><circle cx="39.1016" cy="51.6406" r="1.5"></circle><circle cx="39.1016" cy="64.1758" r="1.5"></circle><circle cx="39.1016" cy="76.709" r="1.5"></circle><circle cx="39.1016" cy="89.2441" r="1.5"></circle><circle cx="39.1016" cy="101.779" r="1.5"></circle><circle cx="39.1016" cy="114.314" r="1.5"></circle><circle cx="51.6367" cy="1.5" r="1.5"></circle><circle cx="51.6367" cy="14.0352" r="1.5"></circle><circle cx="51.6367" cy="26.5684" r="1.5"></circle><circle cx="51.6367" cy="39.1035" r="1.5"></circle><circle cx="51.6367" cy="51.6406" r="1.5"></circle><circle cx="51.6367" cy="64.1758" r="1.5"></circle><circle cx="51.6367" cy="76.709" r="1.5"></circle><circle cx="51.6367" cy="89.2441" r="1.5"></circle><circle cx="51.6367" cy="101.779" r="1.5"></circle><circle cx="51.6367" cy="114.314" r="1.5"></circle><circle cx="64.1719" cy="1.5" r="1.5"></circle><circle cx="64.1719" cy="14.0352" r="1.5"></circle><circle cx="64.1719" cy="26.5684" r="1.5"></circle><circle cx="64.1719" cy="39.1035" r="1.5"></circle><circle cx="64.1719" cy="51.6406" r="1.5"></circle><circle cx="64.1719" cy="64.1758" r="1.5"></circle><circle cx="64.1719" cy="76.709" r="1.5"></circle><circle cx="64.1719" cy="89.2441" r="1.5"></circle><circle cx="64.1719" cy="101.779" r="1.5"></circle><circle cx="64.1719" cy="114.314" r="1.5"></circle><circle cx="76.707" cy="1.5" r="1.5"></circle><circle cx="76.707" cy="14.0352" r="1.5"></circle><circle cx="76.707" cy="26.5684" r="1.5"></circle><circle cx="76.707" cy="39.1035" r="1.5"></circle><circle cx="76.707" cy="51.6406" r="1.5"></circle><circle cx="76.707" cy="64.1758" r="1.5"></circle><circle cx="76.707" cy="76.709" r="1.5"></circle><circle cx="76.707" cy="89.2441" r="1.5"></circle><circle cx="76.707" cy="101.779" r="1.5"></circle><circle cx="76.707" cy="114.314" r="1.5"></circle><circle cx="89.2461" cy="1.5" r="1.5"></circle><circle cx="89.2461" cy="14.0352" r="1.5"></circle><circle cx="89.2461" cy="26.5684" r="1.5"></circle><circle cx="89.2461" cy="39.1035" r="1.5"></circle><circle cx="89.2461" cy="51.6406" r="1.5"></circle><circle cx="89.2461" cy="64.1758" r="1.5"></circle><circle cx="89.2461" cy="76.709" r="1.5"></circle><circle cx="89.2461" cy="89.2441" r="1.5"></circle><circle cx="89.2461" cy="101.779" r="1.5"></circle><circle cx="89.2461" cy="114.314" r="1.5"></circle><circle cx="101.777" cy="1.5" r="1.5"></circle><circle cx="101.777" cy="14.0352" r="1.5"></circle><circle cx="101.777" cy="26.5684" r="1.5"></circle><circle cx="101.777" cy="39.1035" r="1.5"></circle><circle cx="101.777" cy="51.6406" r="1.5"></circle><circle cx="101.777" cy="64.1758" r="1.5"></circle><circle cx="101.777" cy="76.709" r="1.5"></circle><circle cx="101.777" cy="89.2441" r="1.5"></circle><circle cx="101.777" cy="101.779" r="1.5"></circle><circle cx="101.777" cy="114.314" r="1.5"></circle><circle cx="114.312" cy="1.5" r="1.5"></circle><circle cx="114.312" cy="14.0352" r="1.5"></circle><circle cx="114.312" cy="26.5684" r="1.5"></circle><circle cx="114.312" cy="39.1035" r="1.5"></circle><circle cx="114.312" cy="51.6406" r="1.5"></circle><circle cx="114.312" cy="64.1758" r="1.5"></circle><circle cx="114.312" cy="76.709" r="1.5"></circle><circle cx="114.312" cy="89.2441" r="1.5"></circle><circle cx="114.312" cy="101.779" r="1.5"></circle><circle cx="114.312" cy="114.314" r="1.5"></circle><circle cx="126.848" cy="1.5" r="1.5"></circle><circle cx="126.848" cy="14.0352" r="1.5"></circle><circle cx="126.848" cy="26.5684" r="1.5"></circle><circle cx="126.848" cy="39.1035" r="1.5"></circle><circle cx="126.848" cy="51.6406" r="1.5"></circle><circle cx="126.848" cy="64.1758" r="1.5"></circle><circle cx="126.848" cy="76.709" r="1.5"></circle><circle cx="126.848" cy="89.2441" r="1.5"></circle><circle cx="126.848" cy="101.779" r="1.5"></circle><circle cx="126.848" cy="114.314" r="1.5"></circle><circle cx="139.383" cy="1.5" r="1.5"></circle><circle cx="139.383" cy="14.0352" r="1.5"></circle><circle cx="139.383" cy="26.5684" r="1.5"></circle><circle cx="139.383" cy="39.1035" r="1.5"></circle><circle cx="139.383" cy="51.6406" r="1.5"></circle><circle cx="139.383" cy="64.1758" r="1.5"></circle><circle cx="139.383" cy="76.709" r="1.5"></circle><circle cx="139.383" cy="89.2441" r="1.5"></circle><circle cx="139.383" cy="101.779" r="1.5"></circle><circle cx="139.383" cy="114.314" r="1.5"></circle><circle cx="151.918" cy="1.5" r="1.5"></circle><circle cx="151.918" cy="14.0352" r="1.5"></circle><circle cx="151.918" cy="26.5684" r="1.5"></circle><circle cx="151.918" cy="39.1035" r="1.5"></circle><circle cx="151.918" cy="51.6406" r="1.5"></circle><circle cx="151.918" cy="64.1758" r="1.5"></circle><circle cx="151.918" cy="76.709" r="1.5"></circle><circle cx="151.918" cy="89.2441" r="1.5"></circle><circle cx="151.918" cy="101.779" r="1.5"></circle><circle cx="151.918" cy="114.314" r="1.5"></circle><circle cx="164.453" cy="1.5" r="1.5"></circle><circle cx="164.453" cy="14.0352" r="1.5"></circle><circle cx="164.453" cy="26.5684" r="1.5"></circle><circle cx="164.453" cy="39.1035" r="1.5"></circle><circle cx="164.453" cy="51.6406" r="1.5"></circle><circle cx="164.453" cy="64.1758" r="1.5"></circle><circle cx="164.453" cy="76.709" r="1.5"></circle><circle cx="164.453" cy="89.2441" r="1.5"></circle><circle cx="164.453" cy="101.779" r="1.5"></circle><circle cx="164.453" cy="114.314" r="1.5"></circle></svg>